<mxfile host="app.diagrams.net" modified="2023-07-21T14:21:51.850Z" agent="Mozilla/5.0 (X11; Linux x86_64) AppleWebKit/537.36 (KHTML, like Gecko) Chrome/114.0.0.0 Safari/537.36" version="21.6.3" etag="mVyNaGRhsuwDqLKJPKO5" type="github">
  <diagram name="PÃ¡gina-1" id="XOBiPIp4ZpmJ95Gz24GT">
    <mxGraphModel>
      <root>
        <mxCell id="0" />
        <mxCell id="1" parent="0" />
      </root>
    </mxGraphModel>
  </diagram>
</mxfile>
